<?xml version="1.0" encoding="utf-8"?>
<!-- Generator: Adobe Illustrator 15.1.0, SVG Export Plug-In . SVG Version: 6.00 Build 0)  -->
<!DOCTYPE svg PUBLIC "-//W3C//DTD SVG 1.1//EN" "http://www.w3.org/Graphics/SVG/1.1/DTD/svg11.dtd">
<svg version="1.1" id="Ebene_1" xmlns="http://www.w3.org/2000/svg" xmlns:xlink="http://www.w3.org/1999/xlink" x="0px" y="0px"
	 width="41.7px" height="74.106px" viewBox="0 0 41.7 74.106" enable-background="new 0 0 41.7 74.106" xml:space="preserve">
<path fill="#010202" d="M8.512,44.468c0,4.615,3.064,5.771,6.13,7.99c2.469,1.774,5.119,5.324,5.119,8.521v13.126h-8.514V62.755
	c0-1.064-0.51-2.218-1.361-2.84C3.757,56.277,0,51.837,0,44.291c0-9.001,5.136-13.822,10.053-16.375
	c2.684-1.393,5.452-2.4,5.452-2.4s-0.074,1.473,0.534,3.766c0.548,2.065,1.631,3.535,1.631,3.535s-1.499,0.902-3.235,1.842
	C11.15,36.437,7.956,39.47,8.512,44.468L8.512,44.468z"/>
<path fill="#010202" d="M33.006,44.49c0.173,4.61-3.054,5.767-6.106,7.982c-2.458,1.775-4.749,5.324-4.749,8.518v13.116h8.48V62.765
	c0-1.066,0.51-2.22,1.356-2.84c6.105-3.639,9.713-7.912,9.713-15.452c0-6.732-3.39-10.614-8.316-13.386
	c-1.963-1.321-7.491-2.296-7.491-5.307v-7.914l4.411,1.419c0,0,0.341,0.035,0.424,0.035c1.188,0,1.875-0.91,1.875-2.065
	c0-0.177-0.095-0.719-0.265-0.985L21.992,0.479c-0.254-0.355-0.443-0.659-0.848-0.355L10.461,16.447c0,0-0.157,0.525-0.182,0.7
	c-0.19,1.331,0.679,2.363,2.217,2.138l4.774-1.712c0,3.55-0.209,10.917,1.741,13.934C21.869,36.96,32.709,36.589,33.006,44.49
	L33.006,44.49z"/>
</svg>
