<?xml version="1.0" encoding="utf-8"?>
<!-- Generator: Adobe Illustrator 15.1.0, SVG Export Plug-In . SVG Version: 6.00 Build 0)  -->
<!DOCTYPE svg PUBLIC "-//W3C//DTD SVG 1.1//EN" "http://www.w3.org/Graphics/SVG/1.1/DTD/svg11.dtd">
<svg version="1.1" id="Layer_1" xmlns="http://www.w3.org/2000/svg" xmlns:xlink="http://www.w3.org/1999/xlink" x="0px" y="0px"
	 width="83.719px" height="100px" viewBox="122.807 -71.666 83.719 100" enable-background="new 122.807 -71.666 83.719 100"
	 xml:space="preserve">
<path d="M201.778,14.494c0.044-0.08,0.097-0.154,0.136-0.234c0.133-0.275,0.244-0.564,0.33-0.871
	c0.004-0.012,0.01-0.021,0.012-0.035l4.082-14.927c0.771-2.819-0.893-5.731-3.713-6.504c-2.817-0.772-5.734,0.892-6.506,3.712
	l-0.709,2.594l-13.576-23.795l9.664-5.515c10.402-5.935,14.037-19.225,8.103-29.626c-5.933-10.406-19.226-14.041-29.628-8.109
	c-10.403,5.938-14.035,19.231-8.102,29.63l5.516,9.667l-11.575,6.604l-12.623-22.125l2.53,0.691c0.469,0.128,0.938,0.189,1.4,0.189
	c2.326,0,4.461-1.545,5.105-3.899c0.771-2.822-0.891-5.734-3.713-6.507l-14.928-4.084c-0.217-0.059-0.433-0.099-0.648-0.13
	c-0.137-0.02-0.273-0.039-0.41-0.047c-2.461-0.16-4.771,1.418-5.447,3.888c0,0.001,0,0.003,0,0.005l-4.082,14.928
	c-0.771,2.822,0.893,5.734,3.713,6.505c0.467,0.128,0.938,0.189,1.398,0.189c2.326,0,4.462-1.548,5.105-3.901l0.728-2.66
	l12.67,22.207l-6.228,3.431l-3.49,1.992c-5.039,2.874-8.659,7.537-10.189,13.135c-1.527,5.599-0.789,11.453,2.088,16.493
	c4.002,7.017,11.349,10.951,18.9,10.951c3.645,0,7.34-0.918,10.727-2.851c10.402-5.936,14.039-19.226,8.104-29.627l-5.462-9.576
	l11.572-6.602l13.58,23.801l-2.6-0.711c-2.814-0.772-5.732,0.891-6.506,3.713c-0.771,2.82,0.893,5.731,3.713,6.504l14.93,4.082
	c0.303,0.082,0.605,0.127,0.908,0.156c0.068,0.006,0.137,0.01,0.205,0.015c0.096,0.004,0.191,0.018,0.285,0.018
	c0.141,0,0.271-0.021,0.41-0.032c0.104-0.009,0.207-0.013,0.311-0.023c0.271-0.037,0.537-0.1,0.797-0.176
	c0.049-0.017,0.098-0.021,0.145-0.037c0.312-0.104,0.607-0.238,0.896-0.396c0.021-0.013,0.045-0.019,0.064-0.029
	c0.062-0.031,0.107-0.082,0.166-0.115c0.201-0.125,0.395-0.262,0.576-0.409c0.09-0.074,0.174-0.149,0.258-0.229
	c0.154-0.146,0.301-0.301,0.438-0.465c0.07-0.086,0.146-0.171,0.211-0.261C201.55,14.894,201.667,14.697,201.778,14.494z
	 M153.169,16.284c-5.334,3.039-12.143,1.178-15.182-4.147c-1.474-2.583-1.854-5.584-1.068-8.453
	c0.783-2.861,2.637-5.255,5.221-6.727l3.378-1.932l3.912-2.106l2.428-1.387l5.461,9.573C160.36,6.435,158.5,13.244,153.169,16.284z
	 M171.072-44.436c-3.041-5.329-1.179-12.139,4.148-15.181c1.732-0.991,3.625-1.459,5.492-1.459c3.869,0,7.638,2.019,9.686,5.612
	c1.475,2.583,1.854,5.583,1.068,8.449c-0.783,2.868-2.639,5.256-5.221,6.729l-9.664,5.515L171.072-44.436z"/>
</svg>
